<?xml version="1.0" encoding="utf-8"?>
<svg xmlns="http://www.w3.org/2000/svg" width="130" height="130" class="segno"><path transform="scale(2)" class="qrline" stroke="#000" d="M2 2.5h7m1 0h1m2 0h2m3 0h1m4 0h1m2 0h1m1 0h1m2 0h4m2 0h2m5 0h2m1 0h1m2 0h1m2 0h2m1 0h7m-61 1h1m5 0h1m5 0h3m1 0h1m3 0h1m2 0h1m2 0h2m3 0h2m1 0h3m2 0h1m1 0h4m1 0h1m4 0h2m1 0h1m5 0h1m-61 1h1m1 0h3m1 0h1m1 0h2m1 0h1m3 0h1m1 0h2m3 0h1m2 0h1m5 0h1m2 0h4m1 0h1m2 0h1m1 0h3m1 0h5m1 0h1m1 0h3m1 0h1m-61 1h1m1 0h3m1 0h1m1 0h1m1 0h4m2 0h6m1 0h1m3 0h2m4 0h1m1 0h2m4 0h3m1 0h1m2 0h1m1 0h1m1 0h1m1 0h1m1 0h3m1 0h1m-61 1h1m1 0h3m1 0h1m1 0h2m1 0h1m1 0h1m1 0h1m1 0h4m1 0h1m5 0h6m3 0h2m1 0h2m1 0h3m1 0h5m2 0h1m1 0h3m1 0h1m-61 1h1m5 0h1m2 0h2m4 0h2m5 0h1m5 0h1m3 0h1m2 0h1m1 0h2m3 0h2m1 0h1m1 0h1m1 0h2m3 0h1m5 0h1m-61 1h7m1 0h1m1 0h1m1 0h1m1 0h1m1 0h1m1 0h1m1 0h1m1 0h1m1 0h1m1 0h1m1 0h1m1 0h1m1 0h1m1 0h1m1 0h1m1 0h1m1 0h1m1 0h1m1 0h1m1 0h1m1 0h1m1 0h1m1 0h1m1 0h7m-52 1h3m1 0h3m4 0h1m2 0h1m1 0h2m1 0h1m3 0h1m1 0h1m1 0h2m2 0h1m2 0h1m3 0h2m1 0h2m-52 1h4m2 0h1m1 0h1m4 0h1m5 0h1m2 0h1m1 0h2m2 0h8m3 0h2m4 0h3m1 0h1m1 0h1m1 0h1m2 0h3m1 0h1m-54 1h3m2 0h1m1 0h1m2 0h6m1 0h1m1 0h1m2 0h2m1 0h2m1 0h2m4 0h2m5 0h2m4 0h1m3 0h1m-59 1h1m2 0h1m2 0h1m2 0h1m1 0h2m1 0h1m2 0h1m3 0h1m1 0h1m2 0h1m1 0h1m2 0h2m1 0h1m1 0h1m2 0h1m1 0h2m1 0h5m1 0h2m1 0h2m1 0h4m-59 1h2m1 0h2m2 0h3m2 0h2m3 0h1m1 0h2m3 0h1m1 0h3m2 0h1m1 0h1m1 0h1m5 0h1m1 0h2m1 0h3m2 0h2m1 0h1m1 0h2m1 0h1m-61 1h1m5 0h2m7 0h6m4 0h1m1 0h1m1 0h1m1 0h4m1 0h2m1 0h1m1 0h3m1 0h1m1 0h4m1 0h1m1 0h2m2 0h1m-57 1h4m3 0h1m1 0h1m3 0h1m1 0h4m1 0h2m1 0h1m1 0h1m2 0h1m2 0h1m1 0h1m1 0h5m1 0h2m2 0h1m1 0h3m1 0h1m2 0h5m-61 1h1m5 0h1m1 0h1m3 0h2m2 0h4m1 0h1m7 0h2m4 0h1m2 0h1m3 0h1m1 0h1m4 0h4m1 0h2m2 0h2m-60 1h2m2 0h1m3 0h1m1 0h4m1 0h2m1 0h1m2 0h2m1 0h1m2 0h1m1 0h3m2 0h2m1 0h4m1 0h1m1 0h2m3 0h1m3 0h1m2 0h1m-53 1h1m1 0h1m3 0h3m1 0h2m1 0h1m1 0h1m1 0h3m2 0h1m1 0h1m1 0h1m2 0h2m3 0h2m1 0h1m1 0h2m5 0h1m1 0h5m1 0h2m-53 1h1m1 0h1m2 0h1m3 0h1m1 0h1m3 0h1m2 0h1m3 0h1m2 0h3m2 0h1m1 0h3m3 0h3m1 0h1m2 0h2m4 0h1m1 0h1m-57 1h3m2 0h3m2 0h1m4 0h3m2 0h1m2 0h3m1 0h1m2 0h1m1 0h1m1 0h1m1 0h2m1 0h2m1 0h3m1 0h3m3 0h1m2 0h2m-60 1h1m2 0h2m1 0h2m1 0h1m2 0h2m4 0h1m3 0h1m2 0h2m3 0h1m1 0h6m1 0h2m3 0h1m1 0h2m1 0h1m2 0h2m2 0h1m-56 1h1m1 0h1m1 0h2m2 0h3m1 0h2m1 0h1m1 0h2m1 0h1m1 0h2m2 0h1m1 0h1m1 0h1m2 0h1m3 0h2m4 0h3m1 0h1m3 0h1m6 0h1m-60 1h1m3 0h1m5 0h1m1 0h1m3 0h1m1 0h1m1 0h2m1 0h1m1 0h2m2 0h1m1 0h1m3 0h2m1 0h1m1 0h4m3 0h2m4 0h1m1 0h2m-58 1h1m2 0h4m3 0h2m3 0h2m1 0h1m1 0h1m2 0h1m1 0h1m2 0h2m2 0h1m1 0h3m4 0h6m1 0h1m4 0h3m-56 1h3m1 0h2m1 0h1m1 0h4m2 0h1m2 0h1m3 0h1m2 0h5m2 0h1m1 0h1m1 0h2m4 0h5m1 0h4m3 0h2m1 0h2m-59 1h1m3 0h2m2 0h1m2 0h6m1 0h1m1 0h1m7 0h1m3 0h1m1 0h2m5 0h1m2 0h5m1 0h2m1 0h1m2 0h3m-58 1h4m1 0h1m2 0h1m2 0h3m1 0h1m2 0h1m1 0h2m2 0h2m1 0h1m3 0h1m1 0h1m1 0h2m4 0h1m1 0h1m1 0h1m2 0h2m1 0h1m2 0h1m2 0h1m-60 1h1m2 0h2m1 0h3m1 0h1m2 0h1m1 0h1m1 0h1m3 0h1m5 0h1m1 0h2m7 0h2m2 0h1m1 0h1m4 0h2m1 0h1m1 0h2m-56 1h3m2 0h1m4 0h2m1 0h1m1 0h1m1 0h2m3 0h1m1 0h1m5 0h3m6 0h3m2 0h2m3 0h1m1 0h2m1 0h1m1 0h1m3 0h1m-61 1h1m1 0h11m3 0h2m3 0h1m1 0h11m3 0h1m1 0h1m1 0h4m2 0h1m1 0h8m1 0h2m-60 1h2m2 0h1m3 0h2m2 0h1m2 0h2m1 0h2m1 0h1m3 0h2m1 0h1m3 0h1m1 0h2m3 0h1m3 0h1m1 0h4m2 0h2m3 0h2m1 0h2m-59 1h1m1 0h1m1 0h1m1 0h1m2 0h1m1 0h3m2 0h1m2 0h1m2 0h1m1 0h3m1 0h1m1 0h3m2 0h2m1 0h1m4 0h3m2 0h1m1 0h1m1 0h1m1 0h2m1 0h2m-61 1h3m1 0h1m3 0h4m1 0h2m2 0h1m1 0h1m1 0h1m1 0h1m4 0h1m3 0h2m1 0h2m1 0h1m1 0h2m3 0h1m1 0h2m1 0h1m1 0h1m3 0h1m2 0h2m-60 1h1m2 0h5m3 0h1m3 0h2m1 0h2m1 0h1m1 0h2m2 0h7m2 0h1m1 0h2m5 0h2m1 0h1m2 0h5m-56 1h2m1 0h1m2 0h1m1 0h3m2 0h1m1 0h1m2 0h1m4 0h1m1 0h2m8 0h2m3 0h4m2 0h3m2 0h1m1 0h1m2 0h2m-59 1h4m2 0h3m2 0h2m3 0h1m2 0h2m2 0h1m2 0h1m2 0h1m1 0h1m1 0h4m5 0h2m2 0h4m5 0h3m-55 1h1m1 0h1m1 0h1m2 0h1m2 0h1m1 0h1m3 0h2m1 0h1m2 0h1m1 0h2m4 0h1m2 0h1m1 0h1m2 0h1m2 0h1m1 0h1m1 0h1m1 0h6m1 0h4m-60 1h1m3 0h2m1 0h1m5 0h8m5 0h5m2 0h3m2 0h1m1 0h3m1 0h5m6 0h5m-58 1h1m1 0h1m1 0h2m1 0h2m2 0h2m1 0h4m1 0h2m3 0h7m2 0h5m2 0h3m3 0h2m3 0h3m2 0h2m-60 1h1m4 0h3m3 0h5m3 0h1m1 0h1m2 0h2m4 0h3m1 0h1m2 0h1m1 0h4m3 0h1m2 0h1m1 0h1m2 0h1m2 0h2m-60 1h2m3 0h1m1 0h1m2 0h3m1 0h5m2 0h1m2 0h1m1 0h6m5 0h1m1 0h4m1 0h1m7 0h1m3 0h2m2 0h1m-61 1h4m2 0h1m3 0h3m1 0h4m2 0h2m1 0h2m1 0h1m4 0h3m1 0h1m1 0h1m1 0h1m3 0h3m1 0h1m2 0h1m1 0h2m4 0h2m-60 1h2m6 0h3m2 0h1m1 0h3m2 0h1m4 0h3m2 0h5m8 0h1m2 0h2m3 0h1m5 0h4m-60 1h1m2 0h1m1 0h1m1 0h1m2 0h1m3 0h1m2 0h1m1 0h2m2 0h4m2 0h3m1 0h3m1 0h2m3 0h1m1 0h6m2 0h3m4 0h1m-61 1h3m1 0h1m2 0h1m2 0h3m1 0h1m2 0h1m1 0h1m2 0h2m1 0h1m2 0h1m1 0h9m1 0h2m5 0h6m1 0h1m1 0h1m-56 1h1m1 0h1m2 0h2m1 0h1m3 0h2m2 0h1m1 0h4m1 0h2m2 0h2m4 0h2m1 0h1m1 0h2m2 0h1m3 0h1m1 0h1m2 0h1m2 0h2m-57 1h5m2 0h1m2 0h1m1 0h4m6 0h1m1 0h1m3 0h2m1 0h1m1 0h1m2 0h1m3 0h3m5 0h1m2 0h2m1 0h1m2 0h1m-58 1h2m2 0h1m1 0h2m3 0h2m5 0h6m2 0h1m2 0h1m4 0h1m4 0h3m1 0h4m7 0h1m1 0h1m-53 1h1m4 0h10m6 0h1m1 0h2m5 0h1m1 0h2m5 0h3m2 0h4m2 0h2m1 0h2m-58 1h1m2 0h4m1 0h1m1 0h4m2 0h2m1 0h1m1 0h1m4 0h4m2 0h4m1 0h1m4 0h1m2 0h4m1 0h2m1 0h1m1 0h1m1 0h1m1 0h1m-60 1h2m1 0h2m1 0h2m3 0h1m5 0h3m2 0h1m3 0h4m1 0h1m2 0h1m1 0h4m2 0h1m3 0h4m1 0h3m1 0h3m1 0h1m-59 1h5m3 0h2m3 0h2m1 0h2m2 0h1m2 0h1m3 0h1m1 0h2m2 0h1m2 0h1m1 0h1m1 0h2m5 0h2m1 0h2m2 0h1m2 0h1m-60 1h3m1 0h1m3 0h1m2 0h1m1 0h1m1 0h1m2 0h2m1 0h1m2 0h1m3 0h4m3 0h1m4 0h1m3 0h1m1 0h1m3 0h2m8 0h1m-61 1h4m2 0h1m1 0h1m3 0h1m1 0h4m1 0h1m3 0h2m1 0h7m4 0h1m1 0h1m3 0h2m1 0h1m2 0h11m-52 1h2m2 0h5m1 0h1m6 0h4m3 0h1m1 0h2m3 0h3m1 0h1m2 0h3m3 0h1m3 0h1m1 0h1m1 0h1m-61 1h7m2 0h1m1 0h3m1 0h1m1 0h1m3 0h2m1 0h1m3 0h1m1 0h1m1 0h5m1 0h1m6 0h2m1 0h3m1 0h1m1 0h1m1 0h2m2 0h1m-61 1h1m5 0h1m2 0h1m2 0h3m2 0h2m1 0h2m1 0h1m2 0h3m3 0h1m1 0h1m1 0h1m3 0h2m6 0h3m1 0h1m3 0h1m2 0h2m-61 1h1m1 0h3m1 0h1m4 0h1m1 0h2m2 0h2m2 0h2m1 0h2m2 0h8m3 0h2m5 0h2m1 0h1m2 0h5m-57 1h1m1 0h3m1 0h1m1 0h3m1 0h1m1 0h2m2 0h1m2 0h2m1 0h1m1 0h2m1 0h2m4 0h3m2 0h3m4 0h1m1 0h1m1 0h2m1 0h1m1 0h2m2 0h1m-61 1h1m1 0h3m1 0h1m1 0h2m1 0h1m1 0h1m2 0h2m1 0h2m2 0h1m3 0h1m2 0h1m1 0h1m1 0h1m2 0h1m1 0h2m1 0h1m1 0h3m1 0h2m1 0h1m1 0h1m1 0h2m2 0h1m-60 1h1m5 0h1m1 0h2m1 0h1m1 0h1m2 0h2m1 0h1m1 0h1m3 0h3m1 0h2m1 0h1m1 0h1m1 0h2m3 0h2m1 0h6m2 0h2m1 0h1m1 0h2m-59 1h7m1 0h1m1 0h5m1 0h3m1 0h1m10 0h1m1 0h1m1 0h2m5 0h2m3 0h2m4 0h1m1 0h1m1 0h4"/></svg>
